<?xml version="1.0" encoding="utf-8"?>
<!-- Generator: Adobe Illustrator 22.1.0, SVG Export Plug-In . SVG Version: 6.00 Build 0)  -->
<svg version="1.1" id="Layer_1" xmlns="http://www.w3.org/2000/svg" xmlns:xlink="http://www.w3.org/1999/xlink" x="0px" y="0px"
	 viewBox="0 0 429 132" style="enable-background:new 0 0 429 132;" xml:space="preserve">
<style type="text/css">
	.st0{fill:#FFFFFF;}
	.st1{fill:url(#SVGID_1_);}
	.st2{fill:url(#SVGID_2_);}
	.st3{fill:url(#SVGID_3_);}
</style>
<g>
	<path class="st0" d="M131.3,21v10.6h-28.2v17.9h22.6v10.2h-22.6v28.2H89.7V21H131.3z"/>
	<path class="st0" d="M153.6,17.7v70.1h-13.4V17.7H153.6z"/>
	<path class="st0" d="M203.8,37.9c4.1,2.1,7.3,5.3,9.6,9.3c2.3,4.1,3.5,8.9,3.5,14.4c0,5.5-1.2,10.3-3.5,14.3
		c-2.3,4-5.5,7.2-9.6,9.3s-8.7,3.3-13.8,3.3s-9.7-1.1-13.8-3.3s-7.3-5.3-9.6-9.3c-2.3-4-3.5-8.8-3.5-14.3c0-5.5,1.2-10.3,3.5-14.4
		c2.3-4.1,5.5-7.2,9.6-9.3c4.1-2.1,8.7-3.2,13.8-3.2S199.7,35.8,203.8,37.9z M180.5,50.2c-2.6,2.6-3.9,6.4-3.9,11.4
		c0,5,1.3,8.8,3.9,11.4c2.6,2.6,5.8,3.9,9.5,3.9c3.7,0,6.9-1.3,9.5-3.9c2.6-2.6,3.9-6.4,3.9-11.4c0-5-1.3-8.8-3.9-11.4
		c-2.6-2.6-5.8-3.9-9.5-3.9C186.3,46.3,183.1,47.6,180.5,50.2z"/>
	<path class="st0" d="M301.6,35.4l-14.1,52.5h-14.8l-11.3-38.2l-11.6,38.2h-14.8l-14-52.5h13.4l8.5,40.6l11.7-40.6h14.1l11.8,40.6
		l8.6-40.6H301.6z"/>
	<path class="st0" d="M321.1,21v39.2c0,5.2,1.2,9.2,3.5,11.8c2.3,2.6,5.6,3.9,10,3.9c4.3,0,7.6-1.3,9.9-3.9
		c2.3-2.6,3.5-6.6,3.5-11.8V21h13.3v39.2c0,6.2-1.2,11.4-3.5,15.7c-2.3,4.3-5.5,7.4-9.6,9.5c-4.1,2.1-8.7,3.1-13.9,3.1
		c-8,0-14.4-2.4-19.2-7.2c-4.8-4.8-7.2-11.8-7.2-21.1V21H321.1z"/>
	<path class="st0" d="M416.3,37.9c3.5,2.1,6.3,5.3,8.3,9.3c2,4.1,3,8.9,3,14.4c0,5.5-1,10.3-3,14.4c-2,4.1-4.8,7.2-8.3,9.3
		c-3.5,2.1-7.5,3.2-11.9,3.2c-4.4,0-8.2-1.1-11.3-3.2c-3.1-2.1-5.4-4.9-6.7-8.5v36H373V35.4h13.4v10.9c1.3-3.5,3.6-6.4,6.7-8.4
		c3.1-2.1,6.9-3.1,11.3-3.1C408.8,34.7,412.8,35.8,416.3,37.9z M390.2,50.5c-2.6,2.7-3.9,6.5-3.9,11.1c0,4.6,1.3,8.3,3.9,11
		c2.6,2.7,6,4.1,10,4.1c4.2,0,7.5-1.3,10-4c2.5-2.7,3.8-6.4,3.8-11.1s-1.3-8.5-3.8-11.2c-2.5-2.7-5.9-4.1-10-4.1
		C396.1,46.4,392.8,47.7,390.2,50.5z"/>
</g>
<g>
	
		<linearGradient id="SVGID_1_" gradientUnits="userSpaceOnUse" x1="36.9711" y1="47.4972" x2="74.5564" y2="47.4972" gradientTransform="matrix(1 0 0 1 -6.3628 15.2895)">
		<stop  offset="1.001603e-03" style="stop-color:#6587FB"/>
		<stop  offset="0.45" style="stop-color:#5495FF"/>
		<stop  offset="1" style="stop-color:#806FFF"/>
	</linearGradient>
	<path class="st1" d="M61.8,70.5L46.1,86.1L30.6,70.6l31.2-31.2c0.1,0.1,0.1,0.1,0.2,0.2C70.4,48.3,70.2,62,61.8,70.5z"/>
	
		<linearGradient id="SVGID_2_" gradientUnits="userSpaceOnUse" x1="36.0342" y1="55.8308" x2="70.248" y2="115.0908" gradientTransform="matrix(1 0 0 1 -6.3628 15.2895)">
		<stop  offset="0" style="stop-color:#6587FB"/>
		<stop  offset="0.37" style="stop-color:#3CAAFD"/>
		<stop  offset="1" style="stop-color:#823FFD"/>
	</linearGradient>
	<path class="st2" d="M30.7,70.5l30.9,30.9c0.1,0.1,0.1,0.1,0.2,0.2c1.5,1.5,2.7,3.1,3.8,4.9c4.2,7.4,3.8,16.7-1.3,23.6L28,93.9
		c-5.7-5.7-5.7-15,0-20.7L30.7,70.5z"/>
	
		<linearGradient id="SVGID_3_" gradientUnits="userSpaceOnUse" x1="7.1281" y1="24.9884" x2="61.6339" y2="24.9884" gradientTransform="matrix(1 0 0 1 -6.3628 15.2895)">
		<stop  offset="0" style="stop-color:#F9A91E"/>
		<stop  offset="0.7025" style="stop-color:#FF3F45"/>
	</linearGradient>
	<path class="st3" d="M48.9,0.5c1.4,1.4,2.5,2.9,3.5,4.6c4.2,7.4,3.8,16.7-1.3,23.6c-0.7,1-1.5,1.9-2.3,2.7L7.2,73.1
		c-0.4-0.4-0.9-0.9-1.2-1.4C-0.8,63.8-1,52.1,5.5,44L48.9,0.5z M20.2,60.1l-13,13l7,7C12.8,73.1,14.8,65.5,20.2,60.1z"/>
</g>
</svg>
